<?xml version="1.0" encoding="utf-8"?>
<!-- Generator: Adobe Illustrator 23.1.0, SVG Export Plug-In . SVG Version: 6.00 Build 0)  -->
<svg version="1.1" id="Livello_1" xmlns="http://www.w3.org/2000/svg" xmlns:xlink="http://www.w3.org/1999/xlink" x="0px" y="0px"
	 viewBox="0 0 864 1152" style="enable-background:new 0 0 864 1152;" xml:space="preserve">
<style type="text/css">
	.st0{fill:#F9F9F9;stroke:#F9F9F9;}
	.st1{fill-opacity:0;}
</style>
<path class="st0" d="M120.5,249l41,5l30,7l26,9l21,16l54,54l50.5,29l3,10.5l17,23l8,32l-7,26l7,11l-2-1l-2.5-3.5l-4-2l0.5,1.5
	c2.2,5.9,5.7,10.4,10.5,13.5l1-2l0.5,19.5l1,2.5l9.5,2l15.5,14.5l15,21.5l9.5,1l1-1l17-1l14,4h4l13,10h9l11-2l17-8l10-2v1l-5.5,1.5
	l1,2.5h3.5l19.5-7.5l-3.5-2.5l-5,2v-1l8-4l35-5l41-28l32-16l21-8l41-11l26.5,17.5l29,55l2,17l2,6l2,17l2,6l2,17l6,29v6l11,63v7l3,17
	v12l1,1v12l1,1l2,32l2,2l3,21l16,81v6l8,46v8l1,1l1,16l1,1l1,16l1,1l2,18l-1,5.5h-3.5l-22-19l-70-51l-130-103
	c-29.5-17.5-57.8-36.2-85-56l-49-26l-127-57l-78-51l-81,23l-90,39l-0.5-8.5l-1-1v-15l-1-1v-15l-1-1v-14l-1-1v-15l-1-1v-14l-1-1v-15
	l-1-1l-2-43l-9-39l-3-29l-3-16v-7l-6-28v-9l-2-11l-2-42l-1-1v-65c15.6-20.4,32.8-39.2,51.5-56.5C117.6,250.8,119.6,250.5,120.5,249z
	 M195,299l21,39l2,1l14,1l-14-38l-2-1L195,299z M130,318l-11,14l31,36l8-9L130,318z M278,327l11,35l11,6l2,2l-10-28L278,327z
	 M336,377l7,24l6,3l2,2l-4-20L336,377z M95,398l-1,27l6,4c4-2,9.3-3,16-3l2-1L95,398z M279,432l-7,2l25,25l9-2l-18-23l-1-2H279z
	 M124,433l-9,3c-3.3-0.7-4.7,0-4,2l15,9h1v-11L124,433z M322,438l1,4l8,9l11,8h2l-9-14C331.7,441,327.3,438.7,322,438z M236,458
	l-8,10l29,21l4-7L236,458z M668,489l-32,19l6,6l31-17v-2l-3-4L668,489z M110,502l2,33l26,5l-1-18L110,502z M213,506l-2,2l-2,11
	l26,11l5,1l1-4L213,506z M382,506l-2,2l13,9l3-1l-10-10H382z M360,516l-3,4l20,14l2-3l-17-15H360z M691,522l-34,22l2,6l38-15
	L691,522z M442,539l-2,3l15,3c2,0.7,2.7,0.3,2-1l-1-2L442,539z M332,540l-3,4l26,15l1-2L332,540z M557,547l-24,9
	c-2.7-0.7-3.3,0.3-2,3l29-5L557,547z M438,554l-1,4l21,6c3.3,1.3,4.3,0.3,3-3l-1-2L438,554z M212,555c-0.7,7.3-0.3,13,1,17l21,4h4
	v-9C230.7,561.7,222,557.7,212,555z M315,567v4l24,12l1-5L315,567z M564,576l-26,6c-2,0.7-2.7,2.7-2,6l32-3l-1-6
	C567.7,575.7,566.7,574.7,564,576z M428,580v3l26,7h1v-5L428,580z M707,587l-37,15l1,1v11l41-2l2-1l-4-19
	C711.3,587.3,710.3,585.7,707,587z M307,590l-1,9l23,11l1-8L307,590z M418,603l-1,5l29,8l1-6L418,603z M567,614l-1,1h-8l-1,1h-8
	l-1,1c-5.3-0.7-9.7-0.3-13,1l-1,7l4,1l32,2l-1-1v-12L567,614z M215,615l1,20l20-6h2v-12L215,615z M128,617v11l1,1v18l1,6l21-8h2v-23
	L128,617z M298,628l-2,2l-3,11l23,11l4-12L298,628z M408,629l-3,10l32,12v-11l-1-2h-3L408,629z M530,663l-1,12l36,10v-19L530,663z
	 M397,671l-5,14l33,13l1-13L397,671z M681,682l-2,2l1,2v19l5,2l41,12l-1-2l-1-22l-1-1v-11v-1H681z M525,728l-1,18l40,23h1v-27l-1-2
	L525,728z M690,805l-1,27l-1,1v7l55,37l-10-56L690,805z"/>
<path class="st0" d="M371.5,473l2.5,3.5l-2-1L371.5,473z"/>
<path class="st0" d="M528.5,536l1.5,0.5l-3.5,1.5v-1L528.5,536z"/>
<path class="st1" d="M0,0h864v1152H0V0z M121,249c-1.3,1.3-3.3,1.7-6,1c-19.3,17.3-36.7,36.3-52,57v65l1,1l2,42l2,11v9l6,28v7l3,16
	l3,29l9,39l2,43l1,1v15l1,1v14l1,1v15l1,1v14l1,1v15l1,1v15l1,1l1,8l90-39l81-23l78,51l127,57l49,26c26.7,20,55,38.7,85,56l130,103
	l70,51l22,19h3l1-5l-2-18l-1-1l-1-16l-1-1l-1-16l-1-1v-8l-8-46v-6l-16-81l-3-21l-2-2l-2-32l-1-1v-12l-1-1v-12l-3-17v-7l-11-63v-6
	l-6-29l-2-17l-2-6l-2-17l-2-6l-2-17l-29-55l-26-18l-41,11l-21,8l-32,16l-41,28l-35,5l-6,3v1l3-1l3,3l-19,7h-4l-1-2l6-2v-1l-10,2
	l-17,8l-11,2h-9l-13-10h-4l-14-4l-17,1l-1,1l-10-1l-15-21l-15-15l-10-2l-1-2v-20l-1,2c-5.3-3.3-9-7.7-11-13l-1-3l5,3l2,2l-5-8l7-26
	l-8-32l-17-23l-3-11l-50-29l-54-54l-21-16l-26-9l-30-7L121,249z"/>
<path class="st1" d="M194.5,298l23.5,4l14,38l-14.5-1l-1.5-1.5L194.5,298z"/>
<path class="st1" d="M129.5,318l28.5,40.5l-8.5,9.5L119,331.5L129.5,318z"/>
<path class="st1" d="M277.5,327l14.5,14.5l10,28l-2.5-1.5l-10.5-6.5L277.5,327z"/>
<path class="st1" d="M335.5,377l11.5,8.5l4,20l-2.5-1.5l-5.5-3.5L335.5,377z"/>
<path class="st1" d="M94.5,398l23.5,26.5l-2.5,1.5c-6.3,0-11.7,1-16,3l-5.5-4.5L94.5,398z"/>
<path class="st1" d="M278.5,432h8l1.5,1.5l18,23l-9.5,2.5L272,433.5L278.5,432z"/>
<path class="st1" d="M123.5,433l3.5,2.5v11l-1.5,0.5l-14.5-9c-0.9-2.2,0.3-2.9,3.5-2L123.5,433z"/>
<path class="st1" d="M321.5,438c5.7,0.9,10.2,3.1,13.5,6.5l10,15l-1.5-0.5c-5.9-1.1-10.1-3.9-12.5-8.5l-8-9L321.5,438z"/>
<path class="st1" d="M235.5,458l25.5,23.5l-4.5,7.5L228,468L235.5,458z"/>
<path class="st1" d="M667.5,489l2.5,1.5l3,4v2.5l-31.5,17l-5.5-6.5L667.5,489z"/>
<path class="st1" d="M109.5,502l27.5,19.5l1,18.5l-26-5L109.5,502z"/>
<path class="st1" d="M212.5,506l28.5,20.5l-1,4.5l-5.5-1L209,519l2-11.5L212.5,506z"/>
<path class="st1" d="M381.5,506h4l10.5,9.5l-3.5,1.5l-12.5-9.5L381.5,506z"/>
<path class="st1" d="M359.5,516h2l17.5,14.5l-2.5,3.5L357,519.5L359.5,516z"/>
<path class="st1" d="M690.5,522l6.5,13l-38,15l-2-6.5L690.5,522z"/>
<path class="st1" d="M441.5,539l14,3l1.5,1.5c0.5,1.7-0.3,2.2-2.5,1.5l-14.5-3L441.5,539z"/>
<path class="st1" d="M331.5,540l24.5,16.5l-1,2.5l-26-15.5L331.5,540z"/>
<path class="st1" d="M556.5,547l3.5,7l-29,5c-1-2.5-0.5-3.5,1.5-3L556.5,547z"/>
<path class="st1" d="M438,554l21.5,5l1.5,1.5c1.2,3.5,0,4.7-3.5,3.5l-20.5-6L438,554z"/>
<path class="st1" d="M212,555c9.7,2.5,18.4,6.3,26,11.5v9.5h-4.5l-20.5-4C211.6,567.7,211.3,562,212,555z"/>
<path class="st1" d="M315,567l25,11l-1,5l-24-12V567z"/>
<path class="st1" d="M563.5,576c3.2-1.1,4.4-0.3,3.5,2.5l1,6.5l-32,3c-0.8-3.1-0.3-5.1,1.5-6L563.5,576z"/>
<path class="st1" d="M428,580l27,5v5h-1.5l-25.5-7V580z"/>
<path class="st1" d="M706.5,587c3.8-1.2,5,0.3,3.5,4.5l4,19.5l-2.5,1l-40.5,2v-11.5l-1-1L706.5,587z"/>
<path class="st1" d="M306.5,590l23.5,11.5l-1.5,8.5L306,598.5L306.5,590z"/>
<path class="st1" d="M418,603l29,7l-1,6l-29-8L418,603z"/>
<path class="st1" d="M566.5,614l2.5,0.5v12l0.5,1.5l-32-2l-3.5-1l1-7c3-1.1,7.2-1.5,12.5-1l1-1h8l1-1h8L566.5,614z"/>
<path class="st1" d="M215,615l23,2v11.5l-2.5,0.5l-20,6L215,615z"/>
<path class="st1" d="M128,617l25,5v22.5l-2.5,0.5l-20.5,8l-1-6.5v-18l-1-1V617z"/>
<path class="st1" d="M297.5,628l22.5,11.5l-4.5,12.5L293,641l3-11.5L297.5,628z"/>
<path class="st1" d="M407.5,629l25,9h3l1.5,1.5l-0.5,11.5L405,639L407.5,629z"/>
<path class="st1" d="M530,663l35,3l-0.5,19L529,675L530,663z"/>
<path class="st1" d="M396.5,671l29.5,13.5l-1,13.5l-33-13.5L396.5,671z"/>
<path class="st1" d="M680.5,682h42l0.5,0.5v11l1,1l1,22l1,2.5l-41.5-12l-4.5-2.5v-19l-1-2L680.5,682z"/>
<path class="st1" d="M525,728l38.5,12l1.5,1.5v27l-1.5,0.5L524,745.5L525,728z"/>
<path class="st1" d="M689.5,805l43.5,16l10,56l-55-37v-7.5l1-1L689.5,805z"/>
</svg>
